<svg width="32" height="32" viewBox="0 0 32 32" fill="none" xmlns="http://www.w3.org/2000/svg">
  <defs>
    <linearGradient id="forge-flame" x1="6" y1="3" x2="26" y2="29" gradientUnits="userSpaceOnUse">
      <stop stop-color="#ffa51f"/>
      <stop offset="0.5" stop-color="#f5540f"/>
      <stop offset="1" stop-color="#e72357"/>
    </linearGradient>
  </defs>
  <!-- Warm-dark tile so the mark is legible on both light and dark tabs. -->
  <rect width="32" height="32" rx="7" fill="#171312"/>
  <!-- lucide "flame", filled with the brand molten gradient, padded 4px. -->
  <path transform="translate(4 4)" fill="url(#forge-flame)"
    d="M8.5 14.5A2.5 2.5 0 0 0 11 12c0-1.38-.5-2-1-3-1.072-2.143-.224-4.054 2-6 .5 2.5 2 4.9 4 6.5 2 1.6 3 3.5 3 5.5a7 7 0 1 1-14 0c0-1.153.433-2.294 1-3a2.5 2.5 0 0 0 2.5 2.5z"/>
</svg>
